<?xml version="1.0" encoding="utf-8"?>
<!-- Generator: Adobe Illustrator 27.9.0, SVG Export Plug-In . SVG Version: 6.00 Build 0)  -->
<svg version="1.1" xmlns="http://www.w3.org/2000/svg" xmlns:xlink="http://www.w3.org/1999/xlink" x="0px" y="0px"
	 viewBox="0 0 841.9 595.3" style="enable-background:new 0 0 841.9 595.3;" xml:space="preserve">
<style type="text/css">
	.st0{fill:#335BAA;stroke:#335BAA;stroke-miterlimit:10;}
	.st1{fill:#FFFFFF;}
	.st2{fill:#0D162D;stroke:#0D162D;stroke-miterlimit:10;}
</style>
<g id="Layer_1">
	<g>
		<g>
			<path class="st0" d="M170.2,263.4c-0.5,0-0.8-0.1-1.1-0.1c-6.2-0.1-12.4-0.2-18.6-0.3c-2.2,0-3.7-1-4.5-2.9
				c-0.6-1.3-0.9-2.8-1-4.2c-0.1-6,0-11.9,0-18.1c-0.5-0.1-0.8-0.2-1.1-0.2c-19.8,0-39.6,0-59.4,0.1c-1.2,0-2.5,0.6-3.6,1.2
				c-2.5,1.6-3.7,4.1-3.7,7.2c0,16.1,0,32.2,0,48.3c0,0.5,0.1,1,0.1,1.6h92.8C170.7,285.2,170.7,274.3,170.2,263.4z M161.7,274.9
				c-5.8,0-11.6,0-17.4,0c-1.2,0-1.5-0.7-1.6-1.8c0-1.1,0.4-1.7,1.6-1.7c3,0,6,0,8.9,0v0.4c2.8,0,5.6,0,8.5,0c0.9,0,1.7,0,1.8,1.2
				C163.5,274.4,162.9,274.9,161.7,274.9z M140.2,273c0.1,1-0.3,1.8-1.5,1.8c-0.5,0-1.1,0-1.6,0h-33.5c-0.6,0-1.3,0-1.8-0.1
				c-0.1,0-0.2,0-0.3-0.1h0c-0.6-0.2-1.2-1-1.3-1.5c-0.1-0.8,0.2-1.3,0.9-1.6c0,0,0,0,0,0c0.1,0,0.2-0.1,0.3-0.1c0.1,0,0.3,0,0.4,0
				h18.6l0.7,0c5.9,0,11,0.1,16.9,0.1C139.1,271.6,140.1,271.6,140.2,273z M84.5,248.3c0.1-2.5,1.5-3.8,3.9-3.8
				c12.6-0.2,25.2-0.3,37.8-0.4c1.5,0,3.1,0.2,4.6,0.4c2.3,0.3,3.4,1.5,3.5,3.8c0.1,3,0.3,5.9,0.1,8.9c-0.3,3.5-1,4-4.5,4h-20.6v0
				c-6.9,0-13.7,0-20.6,0c-3.2,0-4.1-0.9-4.2-4C84.4,254.2,84.3,251.2,84.5,248.3z M86.3,271.6c1.1,0.1,2.2,0.1,3.4,0.2v0.2
				c1.3,0,2.6-0.1,3.8,0c0.5,0,1.2,0.6,1.2,1c0,0.5-0.4,1.2-0.8,1.5c-0.4,0.3-1,0.3-1.5,0.3c-2.1,0-4.1,0-6.1,0.1
				c-1.5,0.1-1.9-0.7-1.8-2C84.5,271.7,85.3,271.5,86.3,271.6z M114.2,287.9c-8.9-1.2-16.7,0.1-25.6,0.1c-1,0-1.7,0.2-2.6,0.1
				c-0.1-1.9-1.1-1.7,1.9-1.6c9.4,0.1,17.9,0.2,27.2,0.3c0.2,0,0.4-0.1,0.6,0C115.7,287.4,115.5,288,114.2,287.9z M161.3,287.8
				c-6.2,0.1-11.5,0-17.7,0c-2.2,0-16.1-0.2-18.9,0.1c-0.4,0.1-0.6-0.1-1-0.2c-0.3-1.7-0.2-0.9,2.5-0.9c10.9,0,20.3-0.1,31.2-0.1
				c1.3,0,2.5,0,3.8,0c1.3,0,0.7-0.5,0.7,0.6C162,288.5,162.3,287.8,161.3,287.8z"/>
			<path class="st0" d="M170.2,307.9H77.4c-0.1,0.4-0.2,0.6-0.2,0.9c0,11.2,0,22.4,0,33.7c0,3.3,2,6.1,5.1,7.2
				c1.4,0.5,3,0.6,4.5,0.6c24.4,0,48.9,0,73.3,0c1.4,0,2.9-0.2,4.3-0.5c3.2-0.7,5.7-3.8,5.7-7.1c0.1-10.8,0.1-21.5,0.2-32.3
				C170.4,309.7,170.3,308.8,170.2,307.9z M163.1,314.4c-0.2,0.6-0.6,1.6-1,1.7c-0.5,0-1,0.1-1.5,0.1c-1,0-2,0.1-3,0
				c-0.5,0-0.9-0.1-1.4-0.1c-1.4-0.2-1.2-1.5-0.9-2.9c2.4-0.1,4.5-0.2,6.7-0.3C162.9,312.8,163.2,313.6,163.1,314.4z M113.1,312.8
				c11.8,0,23.5,0,35.3,0c3.2,0,3.2,0,2.5,3.3h-39.8c-0.1-1.1-0.1-2.1-0.2-3.2C111.8,312.8,112.5,312.8,113.1,312.8z M137.9,326.6
				c0.5,0,0.9,0.1,1.7,0.1v3.2H98.7c-0.3-1.1-0.5-1.8-0.4-2.4c0,0,0-0.1,0-0.2c0-0.1,0-0.1,0-0.2c0,0,0-0.1,0-0.1c0,0,0-0.1,0.1-0.1
				c0-0.1,0.1-0.1,0.2-0.1c0.2-0.2,0.5-0.2,0.8-0.3c0.2,0,0.3,0,0.5-0.1c0.3,0,0.6,0,1,0c3.1,0,6.2,0,9.3,0
				C119.4,326.5,128.7,326.6,137.9,326.6z M87.4,312.8c6.1,0,12.2,0,18.3,0c0.4,0,0.7,0.1,1.3,0.1v3.1H85.1
				C84.2,313.1,84.4,312.8,87.4,312.8z M86.3,326.7c1.9,0,3.8,0,5.7-0.1c1.2,0,1.9,0.4,1.9,1.7c0,1.3-0.7,1.7-1.9,1.6
				c-0.9,0-1.8,0-2.7,0v0.1c-1,0-2,0-3,0c-1,0-1.7-0.2-1.6-1.4C84.7,327.6,84.9,326.7,86.3,326.7z M131.4,343.9c-4.4,0-8.5,0-12.7,0
				c-10.7-0.1-21.3-0.1-32-0.2c-0.8,0-1.9,0.3-2.2-1c-0.2-1.3,0.4-2,2-2c5.6-0.1,11.1-0.1,16.7-0.1c9.3,0,18.6,0,28.2,0V343.9z
				 M162.8,329.8h-17.3v-3.2c0.8-0.1,1.5-0.1,2.2-0.1c4.2,0,8.4,0.1,12.5,0C163.2,326.5,163.4,326.7,162.8,329.8z"/>
			<path class="st0" d="M98.7,367.4c0.2,2.8-1.9,5.4-4.7,5.8c-1.7,0.2-3.5,0.4-5.2,0.4c-11.3,0-22.6,0-33.9-0.1
				c-2.1,0-4.3-0.2-6.4-0.3c-2.2-0.2-4.2-2.2-4.2-4.4c-0.2-14.4-0.3-28.8-0.4-43.3c0-2,0.2-4.1,2.1-5.5c1.8-1.3,3.6-1.6,5.6-0.9
				c2.1,0.7,3.5,2.1,3.6,4.5c0.1,1.5,0.3,3,0.3,4.6c0,10.2,0,20.5,0.1,30.7v2.8c2.2,0,4,0,5.8,0c10.7,0.1,21.4,0.2,32.1,0.3
				C96.3,362,98.5,364.3,98.7,367.4z"/>
			<path class="st0" d="M202.8,346.2C202.8,346.2,202.8,346.2,202.8,346.2c0,7.1,0,14.2,0,21.3c0,3.8-1.9,5.8-5.8,5.8
				c-13.5,0.2-26.9,0.3-40.3,0.3c-2.5,0-5,0.1-6.9-2.3c-2.5-3.1-1.7-6.5,1.2-8.8c0.5-0.4,1.4-0.6,2.1-0.6c5-0.2,10.1-0.3,15.1-0.3
				c7-0.1,13.9,0,20.9-0.1c2.3,0,2.4,0,2.4-2.5c0-11.5,0-23.1,0-34.6c0-3.4,2-5.6,5.4-5.7c3.2-0.1,5.8,2.2,5.9,5.4
				C202.9,331.5,202.8,338.8,202.8,346.2z"/>
			<path class="st0" d="M96.9,224.6c-0.9,1-2,1.1-3.3,1.1c-7.3,0-14.7,0-22,0c-4.8,0-9.6,0.1-14.4,0.2c-0.4,0-0.9,0.1-1.7,0.3v3.4
				c0,10.4,0,20.8,0,31.1c0,1.2,0,2.4-0.3,3.6c-0.8,4.2-4.8,6-8.4,3.8c-1.5-0.9-2.7-1.9-2.7-4c0-8.8-0.2-17.5-0.3-26.3
				c0-4.7,0-9.3,0-14c0-1.8,0.2-3.6,0.4-5.5s1.8-3.3,3.7-3.5c2.4-0.2,4.9-0.4,7.3-0.4c11.9,0,23.8,0,35.7,0c0.7,0,1.4,0.1,2,0.1
				c2.8,0,4.2,1.7,5.2,4C99.4,220.9,98.4,222.8,96.9,224.6z"/>
			<path class="st0" d="M202.8,263.2c0,2.9-3,5.8-5.7,6c-2.2,0.1-5.6-3.1-5.6-5.4c0-5.3,0-10.7,0-16c0-6.6,0-13.1-0.1-19.7
				c0-2.1-0.1-2.2-2.2-2.2c-10.5,0-20.9,0-31.4,0c-1.5,0-2.9,0-4.4-0.1c-3.8-0.1-6.3-4.4-4.6-7.9c0.9-1.9,2.2-3.3,4.5-3.3
				c1.2,0,2.3-0.2,3.4-0.2c12.1,0,24.3,0,36.4,0.1c1.8,0,3.7,0.2,5.5,0.4c2.2,0.2,4,2.5,4.1,5.3c0,7.2,0,14.5,0,21.8h0
				C202.8,249.1,202.8,256.2,202.8,263.2z"/>
			<path class="st0" d="M199.7,304.5c-0.5,0-0.9,0-1.4,0c-27.8,0.1-55.6,0.2-83.4,0.3c-9.4,0-18.8,0.1-28.2,0c-13-0.1-26-0.2-39-0.4
				c-0.4,0-0.9-0.1-1.5-0.1v-4.8h155.2c0.2,1,0.4,1.7,0.4,2.4C201.9,303.7,201.5,304.3,199.7,304.5z"/>
			<path class="st0" d="M168,260c-3.2,0-6.7,0-10.2,0c-2.3,0-4.5-0.2-6.8-0.3c-1.7-0.1-2.5-1.2-2.5-2.6c-0.1-5.5,0-11.1,0-16.3
				C154.9,247.1,161.5,253.7,168,260z"/>
			<path class="st0" d="M101.5,274.8c-0.4,0-1.4-0.2-1.3-1.5C100.3,273.8,100.9,274.5,101.5,274.8z"/>
			<path class="st0" d="M153.3,271.9c2.8,0,5.6,0,8.5,0c0.9,0,1.7,0,1.8,1.2c0,1.3-0.6,1.8-1.8,1.8c-5.8,0-11.6,0-17.4,0
				c-1.2,0-1.6-0.7-1.6-1.8c0-1.1,0.4-1.7,1.6-1.7c3,0,5.9,0,8.9,0C153.3,271.6,153.3,271.8,153.3,271.9z"/>
			<path class="st0" d="M89.7,272.4c1.3,0,2.4,0,3.7,0.1c0.5,0,1.4,0.2,1.4,0.5c0,0.5-0.7,0.3-1.1,0.6c-0.4,0.3-0.7-0.1-1.2,0
				c-2,0-3.5,0-5.5,0.1c-1.5,0.1-2.5,0.5-2.4-0.8c0-1.3,1.6-0.2,2.7-0.1c1.1,0.1,1.1-0.4,2.2-0.4C89.4,273.5,89.7,273.1,89.7,272.4z
				"/>
			<path class="st0" d="M139.6,326.7c0,1.2,0,2.1,0,3.2c-13.8,0-27.4,0-40.9,0c-0.9-3-0.6-3.4,2.2-3.4c12.4,0,24.7,0.1,37.1,0.1
				C138.4,326.6,138.8,326.6,139.6,326.7z"/>
			<path class="st0" d="M89.2,330c-1,0-2,0-3,0c-1,0-1.7-0.2-1.6-1.4c0.1-1,0.2-2,1.6-2c1.9,0,3.8,0,5.7-0.1c1.2,0,1.8,0.4,1.9,1.7
				c0,1.3-0.7,1.7-1.9,1.6C91,329.9,90.1,329.9,89.2,330C89.2,329.9,89.2,330,89.2,330z"/>
			<path class="st0" d="M155.2,313.1c2.3-0.1,4.5-0.2,6.7-0.3c1,0,1.4,0.8,1.2,1.6c-0.1,0.6-0.6,1.6-1,1.7c-2,0.2-4,0.2-5.9,0
				C154.7,315.8,154.9,314.5,155.2,313.1z"/>
			<path class="st0" d="M131.2,257.7H87.5v-9.9c1-0.1,1.9-0.3,2.8-0.3c12.8,0,25.5,0,38.3,0c2.3,0,2.6,0.3,2.7,2.6
				C131.3,252.5,131.2,255,131.2,257.7z"/>
		</g>
	</g>
	<path class="st1" d="M93.8,274.4h-8.5c-0.6,0-1.1-0.5-1.1-1.1l0,0c0-0.6,0.5-1.1,1.1-1.1h8.5c0.6,0,1.1,0.5,1.1,1.1l0,0
		C95,273.9,94.5,274.4,93.8,274.4z"/>
	<path class="st1" d="M109.8,274.4h-8.5c-0.6,0-1.1-0.5-1.1-1.1l0,0c0-0.6,0.5-1.1,1.1-1.1h8.5c0.6,0,1.1,0.5,1.1,1.1l0,0
		C111,273.9,110.4,274.4,109.8,274.4z"/>
	<path class="st1" d="M162.3,315.6h-7.7c-0.6,0-1.1-0.5-1.1-1.1v-0.1c0-0.6,0.5-1.1,1.1-1.1h7.7c0.6,0,1.1,0.5,1.1,1.1v0.1
		C163.5,315.1,163,315.6,162.3,315.6z"/>
	<path class="st1" d="M150.4,315.6h-38.6c-0.6,0-1.1-0.5-1.1-1.1v-0.1c0-0.6,0.5-1.1,1.1-1.1h38.6c0.6,0,1.1,0.5,1.1,1.1v0.1
		C151.5,315.1,151,315.6,150.4,315.6z"/>
	<path class="st1" d="M106.1,315.6H85.4c-0.6,0-1.1-0.5-1.1-1.1v-0.1c0-0.6,0.5-1.1,1.1-1.1h20.8c0.6,0,1.1,0.5,1.1,1.1v0.1
		C107.3,315.1,106.8,315.6,106.1,315.6z"/>
	<path class="st1" d="M162.4,288.3h-39c-0.6,0-1.1-0.5-1.1-1.1l0,0c0-0.6,0.5-1.1,1.1-1.1h39c0.6,0,1.1,0.5,1.1,1.1l0,0
		C163.5,287.8,163,288.3,162.4,288.3z"/>
	<path class="st1" d="M115.6,288.3h-30c-0.6,0-1.1-0.5-1.1-1.1l0,0c0-0.6,0.5-1.1,1.1-1.1h30c0.6,0,1.1,0.5,1.1,1.1l0,0
		C116.8,287.8,116.3,288.3,115.6,288.3z"/>
	<path class="st1" d="M93.1,329.7h-7.7c-0.6,0-1.1-0.5-1.1-1.1v-0.5c0-0.6,0.5-1.1,1.1-1.1h7.7c0.6,0,1.1,0.5,1.1,1.1v0.5
		C94.3,329.2,93.7,329.7,93.1,329.7z"/>
	<path class="st1" d="M130.5,343.6H85.4c-0.6,0-1.1-0.5-1.1-1.1V342c0-0.6,0.5-1.1,1.1-1.1h45.1c0.6,0,1.1,0.5,1.1,1.1v0.5
		C131.7,343.1,131.1,343.6,130.5,343.6z"/>
	<path class="st1" d="M139.7,329.7h-41c-0.6,0-1.1-0.5-1.1-1.1v-0.5c0-0.6,0.5-1.1,1.1-1.1h41c0.6,0,1.1,0.5,1.1,1.1v0.5
		C140.8,329.2,140.3,329.7,139.7,329.7z"/>
	<path class="st1" d="M161.8,329.7h-16.7c-0.6,0-1.1-0.5-1.1-1.1v-0.5c0-0.6,0.5-1.1,1.1-1.1h16.7c0.6,0,1.1,0.5,1.1,1.1v0.5
		C163,329.2,162.4,329.7,161.8,329.7z"/>
</g>
<g id="Layer_2">
	<g>
		<path class="st2" d="M250.6,275.1c0,4.8,4.8,9.7,11.7,9.7c7,0,10.4-3.9,11-8c0.4-5.9-4.4-8.6-9.3-9.7l-7-1.7
			c-11.6-2.9-13.3-9.5-13.3-14.3c0-9.2,8.4-15.4,17.7-15.4c9.9,0,17.6,6.2,17.6,16h-7.4c0-5.5-4.3-8.9-10.3-8.9
			c-5.4,0-10.2,3.2-10.2,8.2c0,2.4,0.9,5.9,7.8,7.6l7.1,1.7c10.2,2.6,15.8,8.3,14.6,17.1c-1,7.9-7.4,14.3-18.2,14.3
			c-11.1,0-19.1-8-19.1-16.5H250.6z"/>
		<path class="st2" d="M340.7,236.3h6.7l6.7,54.6h-7.3l-5-41l-17,35h-6.5l-17.2-35l-5,41h-7.3l6.7-54.6h6.7l19.2,40.1L340.7,236.3z"
			/>
		<path class="st2" d="M372.5,277l-5.3,13.9h-7.8l20.7-54.6h7.9l20.7,54.6h-7.8l-5.3-13.9H372.5z M393.1,270.4l-9-24.2l-9,24.2
			H393.1z"/>
		<path class="st2" d="M454.4,290.9h-8.9l-14.1-20.4h-7v20.4H417v-54.6h21c11.5,0,16.2,8.6,16.2,17.1c0,8.1-4,15.9-14.3,16.8
			L454.4,290.9z M424.4,243.2v20.3h13c6.7,0,9.1-5.1,9.1-10.1c0-5-2.5-10.2-8.8-10.2H424.4z"/>
		<path class="st2" d="M501.3,236.3v7h-16.5v47.6h-7.4v-47.6h-16.5v-7H501.3z"/>
		<path class="st2" d="M563.4,236.3v6.9h-24.5v17.4h19.4v6.9h-19.4v23.4h-7.4v-54.6H563.4z"/>
		<path class="st2" d="M580.6,236.3v54.6h-7.4v-54.6H580.6z"/>
		<path class="st2" d="M602.8,236.3V284h22.2v6.9h-29.6v-54.6H602.8z"/>
		<path class="st2" d="M642,236.3v54.6h-7.4v-54.6H642z"/>
		<path class="st2" d="M689.1,290.9l-24.9-41.1v41.1h-7.4v-54.6h7.3l24.6,40.8v-40.8h7.4v54.6H689.1z"/>
		<path class="st2" d="M748.2,247.8c-3.5-3.1-8.1-5.1-13.1-5.1c-11.4,0-20.2,9.4-20.2,21c0,11.6,8.8,20.9,20.2,20.9
			c9.7,0,17-5.6,17.4-14.7h-15.5v-6.4h23.9c0,19.2-10.2,28.2-25.8,28.2c-15.5,0-27.6-12.4-27.6-28c0-15.4,12-28,27.6-28
			c7.3,0,13.7,2.8,18.4,7.2L748.2,247.8z"/>
		<path class="st2" d="M774.9,275.1c0,4.8,4.8,9.7,11.7,9.7c7,0,10.4-3.9,11-8c0.4-5.9-4.4-8.6-9.3-9.7l-7-1.7
			c-11.6-2.9-13.3-9.5-13.3-14.3c0-9.2,8.4-15.4,17.7-15.4c9.9,0,17.6,6.2,17.6,16h-7.4c0-5.5-4.3-8.9-10.3-8.9
			c-5.4,0-10.2,3.2-10.2,8.2c0,2.4,0.9,5.9,7.8,7.6l7.1,1.7c10.2,2.6,15.8,8.3,14.6,17.1c-1,7.9-7.4,14.3-18.2,14.3
			c-11.1,0-19.1-8-19.1-16.5H774.9z"/>
	</g>
	<g>
		<path class="st0" d="M268,337.3c0,0.1,0,0.1,0,0.2s-0.1,0.1-0.2,0.1s-0.2,0.1-0.3,0.1s-0.3,0-0.5,0c-0.2,0-0.4,0-0.5,0
			c-0.1,0-0.2,0-0.3-0.1s-0.1-0.1-0.2-0.1s0-0.1,0-0.2v-8.8h-10.4v8.8c0,0.1,0,0.1,0,0.2s-0.1,0.1-0.2,0.1s-0.2,0.1-0.3,0.1
			c-0.1,0-0.3,0-0.5,0c-0.2,0-0.3,0-0.5,0s-0.2,0-0.3-0.1s-0.1-0.1-0.2-0.1s0-0.1,0-0.2v-18.4c0-0.1,0-0.1,0-0.2s0.1-0.1,0.2-0.1
			s0.2-0.1,0.3-0.1s0.3,0,0.5,0c0.2,0,0.4,0,0.5,0c0.1,0,0.2,0,0.3,0.1s0.1,0.1,0.2,0.1s0,0.1,0,0.2v7.9H266v-7.9c0-0.1,0-0.1,0-0.2
			s0.1-0.1,0.2-0.1s0.2-0.1,0.3-0.1c0.1,0,0.3,0,0.5,0c0.2,0,0.3,0,0.5,0s0.2,0,0.3,0.1s0.1,0.1,0.2,0.1s0,0.1,0,0.2V337.3z"/>
		<path class="st0" d="M305.2,327.9c0,1.5-0.2,2.9-0.6,4.1c-0.4,1.2-1,2.3-1.7,3.1c-0.8,0.9-1.7,1.5-2.9,2s-2.5,0.7-4.1,0.7
			s-2.9-0.2-4-0.7c-1.1-0.4-2-1.1-2.7-1.9c-0.7-0.8-1.2-1.8-1.6-3c-0.3-1.2-0.5-2.5-0.5-4c0-1.5,0.2-2.8,0.6-4s0.9-2.2,1.7-3.1
			c0.8-0.9,1.7-1.5,2.9-2c1.2-0.5,2.5-0.7,4.1-0.7c1.5,0,2.8,0.2,3.9,0.7c1.1,0.4,2,1.1,2.7,1.9c0.7,0.8,1.3,1.8,1.6,3
			C305,325.1,305.2,326.4,305.2,327.9z M303.1,328.1c0-1.1-0.1-2.2-0.3-3.2c-0.2-1-0.6-1.8-1.1-2.6c-0.5-0.7-1.2-1.3-2.1-1.7
			s-2-0.6-3.3-0.6c-1.3,0-2.4,0.2-3.3,0.7c-0.9,0.4-1.6,1-2.2,1.8c-0.6,0.7-1,1.6-1.2,2.6c-0.2,1-0.4,2-0.4,3.1
			c0,1.2,0.1,2.2,0.3,3.2c0.2,1,0.6,1.9,1.1,2.6s1.2,1.3,2.1,1.7s2,0.6,3.3,0.6c1.3,0,2.4-0.2,3.3-0.7c0.9-0.4,1.6-1,2.2-1.8
			c0.5-0.7,0.9-1.6,1.2-2.6C302.9,330.2,303.1,329.1,303.1,328.1z"/>
		<path class="st0" d="M339.2,330.6c0,1.2-0.2,2.2-0.5,3.1c-0.4,0.9-0.9,1.7-1.5,2.3c-0.7,0.6-1.5,1.1-2.4,1.4
			c-0.9,0.3-2,0.5-3.2,0.5c-1.1,0-2-0.2-2.9-0.5c-0.9-0.3-1.7-0.7-2.3-1.3c-0.7-0.6-1.2-1.3-1.5-2.2c-0.4-0.9-0.5-1.9-0.5-3v-11.9
			c0-0.1,0-0.1,0-0.2c0,0,0.1-0.1,0.2-0.1c0.1,0,0.2-0.1,0.3-0.1s0.3,0,0.5,0c0.2,0,0.3,0,0.5,0s0.2,0,0.3,0.1
			c0.1,0,0.1,0.1,0.2,0.1c0,0,0,0.1,0,0.2v11.6c0,0.9,0.1,1.8,0.4,2.5c0.3,0.7,0.6,1.3,1.1,1.8c0.5,0.5,1.1,0.8,1.7,1.1
			c0.7,0.2,1.5,0.4,2.3,0.4c0.9,0,1.6-0.1,2.3-0.3c0.7-0.2,1.3-0.6,1.7-1c0.5-0.5,0.8-1.1,1.1-1.8c0.3-0.7,0.4-1.5,0.4-2.5v-11.7
			c0-0.1,0-0.1,0-0.2c0,0,0.1-0.1,0.2-0.1c0.1,0,0.2-0.1,0.3-0.1s0.3,0,0.5,0c0.2,0,0.3,0,0.5,0s0.2,0,0.3,0.1
			c0.1,0,0.1,0.1,0.2,0.1c0,0,0,0.1,0,0.2V330.6z"/>
		<path class="st0" d="M372.6,337.3c0,0.1,0,0.1,0,0.2c0,0-0.1,0.1-0.2,0.1c-0.1,0-0.2,0.1-0.3,0.1c-0.1,0-0.3,0-0.5,0
			c-0.2,0-0.3,0-0.5,0c-0.1,0-0.2,0-0.3-0.1c-0.1,0-0.2-0.1-0.2-0.2c-0.1-0.1-0.1-0.2-0.1-0.3l-2-4.6c-0.2-0.5-0.5-1-0.7-1.5
			s-0.6-0.9-0.9-1.2c-0.4-0.3-0.8-0.6-1.3-0.8s-1.1-0.3-1.9-0.3h-2.2v8.5c0,0.1,0,0.1,0,0.2s-0.1,0.1-0.2,0.1s-0.2,0.1-0.3,0.1
			c-0.1,0-0.3,0-0.5,0c-0.2,0-0.3,0-0.5,0s-0.2,0-0.3-0.1s-0.1-0.1-0.2-0.1s0-0.1,0-0.2v-17.7c0-0.4,0.1-0.6,0.3-0.7
			s0.4-0.2,0.6-0.2h3.9c0.5,0,0.9,0,1.3,0c0.3,0,0.6,0.1,0.9,0.1c0.8,0.1,1.5,0.3,2.1,0.6s1.1,0.6,1.5,1s0.7,0.9,0.9,1.4
			c0.2,0.5,0.3,1.1,0.3,1.7c0,0.6-0.1,1.2-0.3,1.7s-0.5,0.9-0.8,1.3c-0.4,0.4-0.8,0.7-1.3,1s-1,0.5-1.6,0.7c0.4,0.1,0.7,0.3,1,0.5
			c0.3,0.2,0.5,0.5,0.8,0.8c0.2,0.3,0.5,0.7,0.7,1c0.2,0.4,0.4,0.8,0.6,1.3l2,4.4c0.1,0.3,0.2,0.6,0.3,0.7
			C372.6,337.1,372.6,337.2,372.6,337.3z M369.2,323.7c0-0.8-0.2-1.5-0.6-2.1c-0.4-0.6-1.1-1-2-1.2c-0.3-0.1-0.7-0.1-1-0.2
			s-0.8-0.1-1.4-0.1h-2.6v7h3c0.8,0,1.5-0.1,2.1-0.3c0.6-0.2,1.1-0.4,1.4-0.7c0.4-0.3,0.7-0.7,0.8-1.1
			C369.1,324.7,369.2,324.2,369.2,323.7z"/>
		<path class="st0" d="M402,332.5c0,0.8-0.2,1.6-0.5,2.3s-0.8,1.2-1.4,1.7c-0.6,0.5-1.3,0.8-2.1,1.1s-1.7,0.4-2.7,0.4
			c-0.7,0-1.3-0.1-1.9-0.2c-0.6-0.1-1.1-0.2-1.6-0.4s-0.9-0.3-1.2-0.5c-0.3-0.2-0.5-0.3-0.7-0.4c-0.1-0.1-0.2-0.2-0.3-0.4
			s-0.1-0.3-0.1-0.6c0-0.2,0-0.3,0-0.4s0.1-0.2,0.1-0.3c0-0.1,0.1-0.1,0.1-0.1c0.1,0,0.1,0,0.2,0c0.2,0,0.4,0.1,0.6,0.3
			c0.3,0.2,0.6,0.4,1.1,0.6c0.4,0.2,1,0.4,1.6,0.6c0.6,0.2,1.3,0.3,2.1,0.3c0.7,0,1.3-0.1,1.8-0.2c0.5-0.2,1-0.4,1.4-0.7
			s0.7-0.7,0.9-1.1c0.2-0.4,0.3-1,0.3-1.5c0-0.6-0.1-1.1-0.4-1.5s-0.6-0.8-1.1-1.1c-0.5-0.3-1-0.6-1.6-0.9c-0.6-0.3-1.2-0.5-1.8-0.8
			c-0.6-0.3-1.2-0.5-1.8-0.8s-1.1-0.7-1.6-1.1c-0.5-0.4-0.8-0.9-1.1-1.4c-0.3-0.5-0.4-1.2-0.4-1.9c0-0.7,0.1-1.4,0.4-2
			s0.7-1.1,1.2-1.5s1.2-0.7,1.9-0.9c0.7-0.2,1.5-0.3,2.4-0.3c0.4,0,0.9,0,1.3,0.1s0.9,0.2,1.3,0.3c0.4,0.1,0.8,0.3,1.1,0.4
			c0.3,0.2,0.5,0.3,0.6,0.4c0.1,0.1,0.2,0.2,0.2,0.2c0,0,0.1,0.1,0.1,0.2s0,0.1,0,0.2s0,0.2,0,0.3c0,0.1,0,0.2,0,0.3
			c0,0.1,0,0.2-0.1,0.3c0,0.1-0.1,0.1-0.1,0.2c0,0-0.1,0.1-0.2,0.1c-0.1,0-0.3-0.1-0.5-0.2c-0.2-0.1-0.5-0.3-0.9-0.5
			c-0.4-0.2-0.8-0.3-1.3-0.5s-1.1-0.2-1.7-0.2c-0.6,0-1.2,0.1-1.7,0.2s-0.9,0.4-1.2,0.6c-0.3,0.3-0.5,0.6-0.7,0.9
			c-0.2,0.4-0.2,0.7-0.2,1.1c0,0.6,0.1,1.1,0.4,1.5c0.3,0.4,0.6,0.8,1.1,1.1s1,0.6,1.6,0.9c0.6,0.3,1.2,0.5,1.8,0.8
			c0.6,0.3,1.2,0.5,1.8,0.8c0.6,0.3,1.1,0.7,1.6,1.1c0.5,0.4,0.8,0.9,1.1,1.4C401.9,331.1,402,331.7,402,332.5z"/>
		<path class="st0" d="M476.9,319.5c0,0.1,0,0.2,0,0.3c0,0.1-0.1,0.2-0.1,0.2s-0.1,0.1-0.2,0.1s-0.1,0.1-0.2,0.1h-6.2v17.1
			c0,0.1,0,0.1,0,0.2c0,0-0.1,0.1-0.2,0.1c-0.1,0-0.2,0.1-0.3,0.1s-0.3,0-0.5,0c-0.2,0-0.3,0-0.5,0s-0.2,0-0.3-0.1
			c-0.1,0-0.1-0.1-0.2-0.1c0,0,0-0.1,0-0.2v-17.1H462c-0.1,0-0.2,0-0.2-0.1c-0.1,0-0.1-0.1-0.2-0.1s-0.1-0.1-0.1-0.2
			c0-0.1,0-0.2,0-0.3c0-0.1,0-0.3,0-0.4c0-0.1,0.1-0.2,0.1-0.3s0.1-0.1,0.2-0.2c0.1,0,0.1-0.1,0.2-0.1h14.4c0.1,0,0.1,0,0.2,0.1
			s0.1,0.1,0.2,0.2s0.1,0.2,0.1,0.3C476.9,319.2,476.9,319.3,476.9,319.5z"/>
		<path class="st0" d="M511.4,327.9c0,1.5-0.2,2.9-0.6,4.1c-0.4,1.2-1,2.3-1.7,3.1c-0.8,0.9-1.7,1.5-2.9,2s-2.5,0.7-4.1,0.7
			s-2.9-0.2-4-0.7c-1.1-0.4-2-1.1-2.7-1.9c-0.7-0.8-1.2-1.8-1.6-3c-0.3-1.2-0.5-2.5-0.5-4c0-1.5,0.2-2.8,0.6-4s0.9-2.2,1.7-3.1
			c0.8-0.9,1.7-1.5,2.9-2c1.2-0.5,2.5-0.7,4.1-0.7c1.5,0,2.8,0.2,3.9,0.7c1.1,0.4,2,1.1,2.7,1.9c0.7,0.8,1.3,1.8,1.6,3
			C511.2,325.1,511.4,326.4,511.4,327.9z M509.3,328.1c0-1.1-0.1-2.2-0.3-3.2c-0.2-1-0.6-1.8-1.1-2.6c-0.5-0.7-1.2-1.3-2.1-1.7
			s-2-0.6-3.3-0.6c-1.3,0-2.4,0.2-3.3,0.7c-0.9,0.4-1.6,1-2.2,1.8c-0.6,0.7-1,1.6-1.2,2.6c-0.2,1-0.4,2-0.4,3.1
			c0,1.2,0.1,2.2,0.3,3.2c0.2,1,0.6,1.9,1.1,2.6s1.2,1.3,2.1,1.7s2,0.6,3.3,0.6c1.3,0,2.4-0.2,3.3-0.7c0.9-0.4,1.6-1,2.2-1.8
			c0.5-0.7,0.9-1.6,1.2-2.6C509.1,330.2,509.3,329.1,509.3,328.1z"/>
		<path class="st0" d="M584.6,332.5c0,0.8-0.2,1.6-0.5,2.3s-0.8,1.2-1.4,1.7c-0.6,0.5-1.3,0.8-2.1,1.1s-1.7,0.4-2.7,0.4
			c-0.7,0-1.3-0.1-1.9-0.2c-0.6-0.1-1.1-0.2-1.6-0.4s-0.9-0.3-1.2-0.5c-0.3-0.2-0.5-0.3-0.7-0.4c-0.1-0.1-0.2-0.2-0.3-0.4
			s-0.1-0.3-0.1-0.6c0-0.2,0-0.3,0-0.4s0.1-0.2,0.1-0.3c0-0.1,0.1-0.1,0.1-0.1c0.1,0,0.1,0,0.2,0c0.2,0,0.4,0.1,0.6,0.3
			c0.3,0.2,0.6,0.4,1.1,0.6c0.4,0.2,1,0.4,1.6,0.6c0.6,0.2,1.3,0.3,2.1,0.3c0.7,0,1.3-0.1,1.8-0.2c0.5-0.2,1-0.4,1.4-0.7
			s0.7-0.7,0.9-1.1c0.2-0.4,0.3-1,0.3-1.5c0-0.6-0.1-1.1-0.4-1.5s-0.6-0.8-1.1-1.1c-0.5-0.3-1-0.6-1.6-0.9c-0.6-0.3-1.2-0.5-1.8-0.8
			c-0.6-0.3-1.2-0.5-1.8-0.8s-1.1-0.7-1.6-1.1c-0.5-0.4-0.8-0.9-1.1-1.4c-0.3-0.5-0.4-1.2-0.4-1.9c0-0.7,0.1-1.4,0.4-2
			s0.7-1.1,1.2-1.5s1.2-0.7,1.9-0.9c0.7-0.2,1.5-0.3,2.4-0.3c0.4,0,0.9,0,1.3,0.1s0.9,0.2,1.3,0.3c0.4,0.1,0.8,0.3,1.1,0.4
			c0.3,0.2,0.5,0.3,0.6,0.4c0.1,0.1,0.2,0.2,0.2,0.2c0,0,0.1,0.1,0.1,0.2s0,0.1,0,0.2s0,0.2,0,0.3c0,0.1,0,0.2,0,0.3
			c0,0.1,0,0.2-0.1,0.3c0,0.1-0.1,0.1-0.1,0.2c0,0-0.1,0.1-0.2,0.1c-0.1,0-0.3-0.1-0.5-0.2c-0.2-0.1-0.5-0.3-0.9-0.5
			c-0.4-0.2-0.8-0.3-1.3-0.5s-1.1-0.2-1.7-0.2c-0.6,0-1.2,0.1-1.7,0.2s-0.9,0.4-1.2,0.6c-0.3,0.3-0.5,0.6-0.7,0.9
			c-0.2,0.4-0.2,0.7-0.2,1.1c0,0.6,0.1,1.1,0.4,1.5c0.3,0.4,0.6,0.8,1.1,1.1s1,0.6,1.6,0.9c0.6,0.3,1.2,0.5,1.8,0.8
			c0.6,0.3,1.2,0.5,1.8,0.8c0.6,0.3,1.1,0.7,1.6,1.1c0.5,0.4,0.8,0.9,1.1,1.4C584.5,331.1,584.6,331.7,584.6,332.5z"/>
		<path class="st0" d="M614.5,336.8c0,0.1,0,0.2,0,0.3s-0.1,0.2-0.1,0.2c0,0.1-0.1,0.1-0.2,0.2s-0.1,0.1-0.2,0.1h-9.8
			c-0.2,0-0.4-0.1-0.6-0.2c-0.2-0.1-0.3-0.4-0.3-0.7v-17.1c0-0.4,0.1-0.6,0.3-0.7s0.4-0.2,0.6-0.2h9.6c0.1,0,0.1,0,0.2,0.1
			s0.1,0.1,0.2,0.2s0.1,0.2,0.1,0.3c0,0.1,0,0.2,0,0.4c0,0.1,0,0.2,0,0.3c0,0.1-0.1,0.2-0.1,0.2s-0.1,0.1-0.2,0.1s-0.1,0.1-0.2,0.1
			h-8.6v6.7h7.4c0.1,0,0.2,0,0.2,0.1c0.1,0,0.1,0.1,0.2,0.1c0,0.1,0.1,0.1,0.1,0.2c0,0.1,0,0.2,0,0.4c0,0.1,0,0.2,0,0.3
			c0,0.1-0.1,0.2-0.1,0.2s-0.1,0.1-0.2,0.1s-0.1,0-0.2,0h-7.4v7.6h8.7c0.1,0,0.1,0,0.2,0.1s0.1,0.1,0.2,0.1c0,0.1,0.1,0.1,0.1,0.2
			C614.5,336.5,614.5,336.7,614.5,336.8z"/>
		<path class="st0" d="M647.4,335c0,0.1,0,0.2,0,0.3c0,0.1,0,0.2,0,0.2s-0.1,0.1-0.1,0.2c0,0.1-0.1,0.1-0.2,0.2
			c-0.1,0.1-0.3,0.2-0.7,0.5c-0.3,0.2-0.8,0.4-1.3,0.6c-0.5,0.2-1.1,0.4-1.8,0.5s-1.4,0.2-2.2,0.2c-1.3,0-2.5-0.2-3.6-0.6
			s-2-1-2.7-1.8c-0.7-0.8-1.3-1.8-1.7-3c-0.4-1.2-0.6-2.5-0.6-4c0-1.5,0.2-2.9,0.6-4.2c0.4-1.2,1-2.3,1.8-3.1c0.8-0.9,1.7-1.5,2.8-2
			c1.1-0.5,2.3-0.7,3.6-0.7c0.6,0,1.2,0.1,1.8,0.2c0.6,0.1,1.1,0.2,1.6,0.4c0.5,0.2,0.9,0.4,1.3,0.6c0.4,0.2,0.7,0.4,0.8,0.5
			c0.1,0.1,0.2,0.2,0.3,0.3c0,0.1,0.1,0.1,0.1,0.2s0,0.2,0,0.2s0,0.2,0,0.3c0,0.1,0,0.3,0,0.4c0,0.1,0,0.2-0.1,0.3
			c0,0.1-0.1,0.1-0.1,0.2c-0.1,0-0.1,0.1-0.2,0.1c-0.2,0-0.4-0.1-0.6-0.3c-0.3-0.2-0.6-0.4-1.1-0.7c-0.4-0.2-1-0.5-1.6-0.7
			s-1.4-0.3-2.3-0.3c-1,0-1.9,0.2-2.7,0.5s-1.5,0.9-2.1,1.6c-0.6,0.7-1,1.5-1.4,2.6c-0.3,1-0.5,2.2-0.5,3.5c0,1.3,0.1,2.4,0.5,3.4
			c0.3,1,0.7,1.8,1.3,2.5c0.6,0.7,1.3,1.2,2.1,1.5s1.8,0.5,2.9,0.5c0.9,0,1.6-0.1,2.3-0.3c0.6-0.2,1.2-0.4,1.7-0.7s0.8-0.5,1.1-0.7
			c0.3-0.2,0.5-0.3,0.7-0.3c0.1,0,0.1,0,0.2,0s0.1,0.1,0.1,0.1c0,0.1,0,0.1,0.1,0.3C647.4,334.7,647.4,334.9,647.4,335z"/>
		<path class="st0" d="M682.5,327.9c0,1.5-0.2,2.9-0.6,4.1c-0.4,1.2-1,2.3-1.7,3.1c-0.8,0.9-1.7,1.5-2.9,2s-2.5,0.7-4.1,0.7
			s-2.9-0.2-4-0.7c-1.1-0.4-2-1.1-2.7-1.9c-0.7-0.8-1.2-1.8-1.6-3c-0.3-1.2-0.5-2.5-0.5-4c0-1.5,0.2-2.8,0.6-4s0.9-2.2,1.7-3.1
			c0.8-0.9,1.7-1.5,2.9-2c1.2-0.5,2.5-0.7,4.1-0.7c1.5,0,2.8,0.2,3.9,0.7c1.1,0.4,2,1.1,2.7,1.9c0.7,0.8,1.3,1.8,1.6,3
			C682.3,325.1,682.5,326.4,682.5,327.9z M680.4,328.1c0-1.1-0.1-2.2-0.3-3.2c-0.2-1-0.6-1.8-1.1-2.6c-0.5-0.7-1.2-1.3-2.1-1.7
			s-2-0.6-3.3-0.6c-1.3,0-2.4,0.2-3.3,0.7c-0.9,0.4-1.6,1-2.2,1.8c-0.6,0.7-1,1.6-1.2,2.6c-0.2,1-0.4,2-0.4,3.1
			c0,1.2,0.1,2.2,0.3,3.2c0.2,1,0.6,1.9,1.1,2.6s1.2,1.3,2.1,1.7s2,0.6,3.3,0.6c1.3,0,2.4-0.2,3.3-0.7c0.9-0.4,1.6-1,2.2-1.8
			c0.5-0.7,0.9-1.6,1.2-2.6C680.3,330.2,680.4,329.1,680.4,328.1z"/>
		<path class="st0" d="M716.6,336.7c0,0.2,0,0.3-0.1,0.4c-0.1,0.1-0.1,0.2-0.2,0.3c-0.1,0.1-0.2,0.1-0.3,0.2c-0.1,0-0.2,0-0.3,0
			h-0.4c-0.2,0-0.4,0-0.6-0.1c-0.2,0-0.3-0.1-0.5-0.3c-0.2-0.1-0.3-0.3-0.5-0.5c-0.2-0.2-0.4-0.5-0.6-0.8l-7.3-11.8
			c-0.4-0.6-0.7-1.2-1.1-1.8c-0.4-0.6-0.7-1.2-1.1-1.8h0c0,0.7,0,1.4,0,2.2s0,1.5,0,2.2v12.3c0,0.1,0,0.1,0,0.2s-0.1,0.1-0.2,0.1
			s-0.2,0.1-0.3,0.1c-0.1,0-0.3,0-0.5,0c-0.2,0-0.3,0-0.5,0s-0.2,0-0.3-0.1s-0.1-0.1-0.2-0.1s0-0.1,0-0.2v-17.7
			c0-0.4,0.1-0.6,0.3-0.7s0.4-0.2,0.6-0.2h0.8c0.3,0,0.5,0,0.6,0.1c0.2,0,0.3,0.1,0.5,0.2s0.3,0.2,0.4,0.4c0.1,0.2,0.3,0.4,0.4,0.7
			l5.6,9.1c0.4,0.6,0.7,1.1,1,1.6c0.3,0.5,0.6,1,0.9,1.5s0.6,1,0.9,1.5c0.3,0.5,0.6,1,0.9,1.5h0c0-0.8,0-1.7,0-2.6s0-1.7,0-2.6v-11
			c0-0.1,0-0.1,0-0.2c0,0,0.1-0.1,0.2-0.1s0.2-0.1,0.3-0.1c0.1,0,0.3,0,0.5,0c0.2,0,0.3,0,0.5,0s0.2,0,0.3,0.1s0.1,0.1,0.2,0.1
			c0,0,0.1,0.1,0.1,0.2V336.7z"/>
		<path class="st0" d="M752.4,327.8c0,1.6-0.2,3-0.7,4.2c-0.4,1.2-1.1,2.2-2,3.1s-1.9,1.4-3.2,1.9c-1.3,0.4-2.8,0.6-4.5,0.6h-4.1
			c-0.2,0-0.4-0.1-0.6-0.2c-0.2-0.1-0.3-0.4-0.3-0.7v-17.1c0-0.4,0.1-0.6,0.3-0.7s0.4-0.2,0.6-0.2h4.4c1.8,0,3.3,0.2,4.5,0.7
			c1.2,0.4,2.2,1.1,3.1,1.9c0.8,0.8,1.4,1.8,1.9,2.9C752.2,325.2,752.4,326.5,752.4,327.8z M750.3,327.9c0-1.1-0.2-2.1-0.5-3.1
			c-0.3-0.9-0.8-1.8-1.4-2.4c-0.6-0.7-1.4-1.2-2.4-1.6s-2.2-0.6-3.7-0.6H739V336h3.2c1.4,0,2.6-0.2,3.6-0.5c1-0.3,1.8-0.8,2.5-1.5
			c0.7-0.7,1.1-1.5,1.5-2.5C750.1,330.5,750.3,329.3,750.3,327.9z"/>
		<path class="st0" d="M782,332.5c0,0.8-0.2,1.6-0.5,2.3s-0.8,1.2-1.4,1.7c-0.6,0.5-1.3,0.8-2.1,1.1s-1.7,0.4-2.7,0.4
			c-0.7,0-1.3-0.1-1.9-0.2c-0.6-0.1-1.1-0.2-1.6-0.4s-0.9-0.3-1.2-0.5c-0.3-0.2-0.5-0.3-0.7-0.4c-0.1-0.1-0.2-0.2-0.3-0.4
			s-0.1-0.3-0.1-0.6c0-0.2,0-0.3,0-0.4s0.1-0.2,0.1-0.3c0-0.1,0.1-0.1,0.1-0.1c0.1,0,0.1,0,0.2,0c0.2,0,0.4,0.1,0.6,0.3
			c0.3,0.2,0.6,0.4,1.1,0.6c0.4,0.2,1,0.4,1.6,0.6c0.6,0.2,1.3,0.3,2.1,0.3c0.7,0,1.3-0.1,1.8-0.2c0.5-0.2,1-0.4,1.4-0.7
			s0.7-0.7,0.9-1.1c0.2-0.4,0.3-1,0.3-1.5c0-0.6-0.1-1.1-0.4-1.5s-0.6-0.8-1.1-1.1c-0.5-0.3-1-0.6-1.6-0.9c-0.6-0.3-1.2-0.5-1.8-0.8
			c-0.6-0.3-1.2-0.5-1.8-0.8s-1.1-0.7-1.6-1.1c-0.5-0.4-0.8-0.9-1.1-1.4c-0.3-0.5-0.4-1.2-0.4-1.9c0-0.7,0.1-1.4,0.4-2
			s0.7-1.1,1.2-1.5s1.2-0.7,1.9-0.9c0.7-0.2,1.5-0.3,2.4-0.3c0.4,0,0.9,0,1.3,0.1s0.9,0.2,1.3,0.3c0.4,0.1,0.8,0.3,1.1,0.4
			c0.3,0.2,0.5,0.3,0.6,0.4c0.1,0.1,0.2,0.2,0.2,0.2c0,0,0.1,0.1,0.1,0.2s0,0.1,0,0.2s0,0.2,0,0.3c0,0.1,0,0.2,0,0.3
			c0,0.1,0,0.2-0.1,0.3c0,0.1-0.1,0.1-0.1,0.2c0,0-0.1,0.1-0.2,0.1c-0.1,0-0.3-0.1-0.5-0.2c-0.2-0.1-0.5-0.3-0.9-0.5
			c-0.4-0.2-0.8-0.3-1.3-0.5s-1.1-0.2-1.7-0.2c-0.6,0-1.2,0.1-1.7,0.2s-0.9,0.4-1.2,0.6c-0.3,0.3-0.5,0.6-0.7,0.9
			c-0.2,0.4-0.2,0.7-0.2,1.1c0,0.6,0.1,1.1,0.4,1.5c0.3,0.4,0.6,0.8,1.1,1.1s1,0.6,1.6,0.9c0.6,0.3,1.2,0.5,1.8,0.8
			c0.6,0.3,1.2,0.5,1.8,0.8c0.6,0.3,1.1,0.7,1.6,1.1c0.5,0.4,0.8,0.9,1.1,1.4C781.8,331.1,782,331.7,782,332.5z"/>
	</g>
</g>
</svg>
